<svg xmlns="http://www.w3.org/2000/svg" xmlns:xlink="http://www.w3.org/1999/xlink" version="1.1" class="marks" width="582" height="428" viewBox="0 0 582 428"><rect width="582" height="428" fill="white"/><g fill="none" stroke-miterlimit="10" transform="translate(37,43)"><g class="mark-group role-frame root" role="graphics-object" aria-roledescription="group mark container"><g transform="translate(0,0)"><path class="background" aria-hidden="true" d="M0.5,0.5h400v300h-400Z" stroke="#ddd"/><g><g class="mark-group role-axis" aria-hidden="true"><g transform="translate(0.5,300.5)"><path class="background" aria-hidden="true" d="M0,0h0v0h0Z" pointer-events="none"/><g><g class="mark-rule role-axis-grid" pointer-events="none"><line transform="translate(50,-300)" x2="0" y2="300" stroke="#ddd" stroke-width="1" opacity="1"/><line transform="translate(150,-300)" x2="0" y2="300" stroke="#ddd" stroke-width="1" opacity="1"/><line transform="translate(250,-300)" x2="0" y2="300" stroke="#ddd" stroke-width="1" opacity="1"/><line transform="translate(350,-300)" x2="0" y2="300" stroke="#ddd" stroke-width="1" opacity="1"/></g></g><path class="foreground" aria-hidden="true" d="" pointer-events="none" display="none"/></g></g><g class="mark-group role-axis" aria-hidden="true"><g transform="translate(0.5,0.5)"><path class="background" aria-hidden="true" d="M0,0h0v0h0Z" pointer-events="none"/><g><g class="mark-rule role-axis-grid" pointer-events="none"><line transform="translate(0,300)" x2="400" y2="0" stroke="#ddd" stroke-width="1" stroke-dasharray="2,2" opacity="1"/><line transform="translate(0,200)" x2="400" y2="0" stroke="#ddd" stroke-width="1" stroke-dasharray="2,2" opacity="1"/><line transform="translate(0,100)" x2="400" y2="0" stroke="#ddd" stroke-width="1" stroke-dasharray="2,2" opacity="1"/><line transform="translate(0,0)" x2="400" y2="0" stroke="#ddd" stroke-width="1" stroke-dasharray="2,2" opacity="1"/></g></g><path class="foreground" aria-hidden="true" d="" pointer-events="none" display="none"/></g></g><g class="mark-group role-axis" role="graphics-symbol" aria-roledescription="axis" aria-label="X-axis titled 'Aspect Type' for a discrete scale with 4 values: Super, Cinderella, Sexual, Romance"><g transform="translate(0.5,300.5)"><path class="background" aria-hidden="true" d="M0,0h0v0h0Z" pointer-events="none"/><g><g class="mark-rule role-axis-tick" pointer-events="none"><line transform="translate(50,0)" x2="0" y2="5" stroke="#888" stroke-width="1" opacity="1"/><line transform="translate(150,0)" x2="0" y2="5" stroke="#888" stroke-width="1" opacity="1"/><line transform="translate(250,0)" x2="0" y2="5" stroke="#888" stroke-width="1" opacity="1"/><line transform="translate(350,0)" x2="0" y2="5" stroke="#888" stroke-width="1" opacity="1"/></g><g class="mark-text role-axis-label" pointer-events="none"><text text-anchor="end" transform="translate(49.5,7) rotate(270) translate(0,4)" font-family="sans-serif" font-size="12px" fill="#000" opacity="1">Super</text><text text-anchor="end" transform="translate(149.5,7) rotate(270) translate(0,4)" font-family="sans-serif" font-size="12px" fill="#000" opacity="1">Cinderella</text><text text-anchor="end" transform="translate(249.5,7) rotate(270) translate(0,4)" font-family="sans-serif" font-size="12px" fill="#000" opacity="1">Sexual</text><text text-anchor="end" transform="translate(349.5,7) rotate(270) translate(0,4)" font-family="sans-serif" font-size="12px" fill="#000" opacity="1">Romance</text></g><g class="mark-rule role-axis-domain" pointer-events="none"><line transform="translate(0,0)" x2="400" y2="0" stroke="#888" stroke-width="1" opacity="1"/></g><g class="mark-text role-axis-title" pointer-events="none"><text text-anchor="middle" transform="translate(200,76.029296875)" font-family="sans-serif" font-size="14px" font-weight="bold" fill="#000" opacity="1">Aspect Type</text></g></g><path class="foreground" aria-hidden="true" d="" pointer-events="none" display="none"/></g></g><g class="mark-group role-axis" role="graphics-symbol" aria-roledescription="axis" aria-label="Y-axis titled 'Number of Aspects' for a linear scale with values from 0.0 to 3.0"><g transform="translate(0.5,0.5)"><path class="background" aria-hidden="true" d="M0,0h0v0h0Z" pointer-events="none"/><g><g class="mark-rule role-axis-tick" pointer-events="none"><line transform="translate(0,300)" x2="-5" y2="0" stroke="#888" stroke-width="1" opacity="1"/><line transform="translate(0,200)" x2="-5" y2="0" stroke="#888" stroke-width="1" opacity="1"/><line transform="translate(0,100)" x2="-5" y2="0" stroke="#888" stroke-width="1" opacity="1"/><line transform="translate(0,0)" x2="-5" y2="0" stroke="#888" stroke-width="1" opacity="1"/></g><g class="mark-text role-axis-label" pointer-events="none"><text text-anchor="end" transform="translate(-7,304)" font-family="sans-serif" font-size="12px" fill="#000" opacity="1">0</text><text text-anchor="end" transform="translate(-7,204.00000000000003)" font-family="sans-serif" font-size="12px" fill="#000" opacity="1">1</text><text text-anchor="end" transform="translate(-7,104.00000000000001)" font-family="sans-serif" font-size="12px" fill="#000" opacity="1">2</text><text text-anchor="end" transform="translate(-7,4)" font-family="sans-serif" font-size="12px" fill="#000" opacity="1">3</text></g><g class="mark-rule role-axis-domain" pointer-events="none"><line transform="translate(0,300)" x2="0" y2="-300" stroke="#888" stroke-width="1" opacity="1"/></g><g class="mark-text role-axis-title" pointer-events="none"><text text-anchor="middle" transform="translate(-17.673828125,150) rotate(-90) translate(0,-3)" font-family="sans-serif" font-size="14px" font-weight="bold" fill="#000" opacity="1">Number of Aspects</text></g></g><path class="foreground" aria-hidden="true" d="" pointer-events="none" display="none"/></g></g><g class="mark-group role-scope" role="graphics-object" aria-roledescription="group mark container"><g transform="translate(130,100.00000000000001)"><path class="background" aria-hidden="true" d="M6,0L34,0C37.311490146964,0,40,2.688509853036,40,6L40,194C40,197.311490146964,37.311490146964,200,34,200L6,200C2.688509853036,200,0,197.311490146964,0,194L0,6C0,2.688509853036,2.688509853036,0,6,0Z"/><g clip-path="url(#clip1)"><g class="mark-group role-scope" role="graphics-object" aria-roledescription="group mark container"><g transform="translate(0,-100.00000000000001)"><path class="background" aria-hidden="true" d="M0,0h40v0h-40Z"/><g><g class="mark-rect role-mark layer_0_marks" role="graphics-object" aria-roledescription="rect mark container"><path aria-label="Aspect Type: Cinderella; Number of Aspects: 2; subtype: Cinderella; Count: 2; Aspects: Venus-Chiron (Square, orbit: 2.3935°)&#xA;Jupiter-Chiron (Opposition, orbit: 0.5695°)" role="graphics-symbol" aria-roledescription="bar" d="M0,100.00000000000001h40v200h-40Z" fill="#FF69B4"/></g></g><path class="foreground" aria-hidden="true" d="" display="none"/></g></g></g><path class="foreground" aria-hidden="true" d="" display="none"/></g><g transform="translate(230,300)"><path class="background" aria-hidden="true" d="M0,0h40v0h-40Z"/><g clip-path="url(#clip2)"><g class="mark-group role-scope" role="graphics-object" aria-roledescription="group mark container"><g transform="translate(0,-300)"><path class="background" aria-hidden="true" d="M0,0h40v0h-40Z"/><g><g class="mark-rect role-mark layer_0_marks" role="graphics-object" aria-roledescription="rect mark container"><path aria-label="Aspect Type: Sexual; Number of Aspects: 0; subtype: Sexual; Count: 0; Aspects: None" role="graphics-symbol" aria-roledescription="bar" d="M0,300h40v0h-40Z" fill="#FF0000"/></g></g><path class="foreground" aria-hidden="true" d="" display="none"/></g></g></g><path class="foreground" aria-hidden="true" d="" display="none"/></g><g transform="translate(330,200.00000000000003)"><path class="background" aria-hidden="true" d="M6,0L34,0C37.311490146964,0,40,2.688509853036,40,6L40,93.99999999999997C40,97.31149014696398,37.311490146964,99.99999999999997,34,99.99999999999997L6,99.99999999999997C2.688509853036,99.99999999999997,0,97.31149014696398,0,93.99999999999997L0,6C0,2.688509853036,2.688509853036,0,6,0Z"/><g clip-path="url(#clip3)"><g class="mark-group role-scope" role="graphics-object" aria-roledescription="group mark container"><g transform="translate(0,-200.00000000000003)"><path class="background" aria-hidden="true" d="M0,0h40v0h-40Z"/><g><g class="mark-rect role-mark layer_0_marks" role="graphics-object" aria-roledescription="rect mark container"><path aria-label="Aspect Type: Romance; Number of Aspects: 1; subtype: Romance; Count: 1; Aspects: Venus-Chiron (Square, orbit: 2.3935°)" role="graphics-symbol" aria-roledescription="bar" d="M0,200.00000000000003h40v99.99999999999997h-40Z" fill="#9370DB"/></g></g><path class="foreground" aria-hidden="true" d="" display="none"/></g></g></g><path class="foreground" aria-hidden="true" d="" display="none"/></g><g transform="translate(30,100.00000000000001)"><path class="background" aria-hidden="true" d="M6,0L34,0C37.311490146964,0,40,2.688509853036,40,6L40,194C40,197.311490146964,37.311490146964,200,34,200L6,200C2.688509853036,200,0,197.311490146964,0,194L0,6C0,2.688509853036,2.688509853036,0,6,0Z"/><g clip-path="url(#clip4)"><g class="mark-group role-scope" role="graphics-object" aria-roledescription="group mark container"><g transform="translate(0,-100.00000000000001)"><path class="background" aria-hidden="true" d="M0,0h40v0h-40Z"/><g><g class="mark-rect role-mark layer_0_marks" role="graphics-object" aria-roledescription="rect mark container"><path aria-label="Aspect Type: Super; Number of Aspects: 1; subtype: Super Fame; Count: 1; Aspects: Jupiter-Uranus (Conjunction, orbit: 2.8601°)" role="graphics-symbol" aria-roledescription="bar" d="M0,100.00000000000001h40v100.00000000000001h-40Z" fill="#FF8C00"/><path aria-label="Aspect Type: Super; Number of Aspects: 1; subtype: Super Success General; Count: 1; Aspects: Chiron-Jupiter (Opposition, orbit: 0.5695°)" role="graphics-symbol" aria-roledescription="bar" d="M0,200.00000000000003h40v99.99999999999997h-40Z" fill="#FF4500"/></g></g><path class="foreground" aria-hidden="true" d="" display="none"/></g></g></g><path class="foreground" aria-hidden="true" d="" display="none"/></g></g><g class="mark-text role-mark layer_1_marks" role="graphics-object" aria-roledescription="text mark container"><text aria-label="Aspect Type: Cinderella; Number of Aspects: 2; subtype: Cinderella; count: 2; Count: 2; Aspects: Venus-Chiron (Square, orbit: 2.3935°)&#xA;Jupiter-Chiron (Opposition, orbit: 0.5695°)" role="graphics-symbol" aria-roledescription="text mark" text-anchor="middle" transform="translate(150,93.00000000000001)" font-family="sans-serif" font-size="11px" fill="#FF69B4">2</text><text aria-label="Aspect Type: Sexual; Number of Aspects: 0; subtype: Sexual; count: 0; Count: 0; Aspects: None" role="graphics-symbol" aria-roledescription="text mark" text-anchor="middle" transform="translate(250,293)" font-family="sans-serif" font-size="11px" fill="#FF0000">0</text><text aria-label="Aspect Type: Romance; Number of Aspects: 1; subtype: Romance; count: 1; Count: 1; Aspects: Venus-Chiron (Square, orbit: 2.3935°)" role="graphics-symbol" aria-roledescription="text mark" text-anchor="middle" transform="translate(350,193.00000000000003)" font-family="sans-serif" font-size="11px" fill="#9370DB">1</text><text aria-label="Aspect Type: Super; Number of Aspects: 1; subtype: Super Fame; count: 1; Count: 1; Aspects: Jupiter-Uranus (Conjunction, orbit: 2.8601°)" role="graphics-symbol" aria-roledescription="text mark" text-anchor="middle" transform="translate(50,93.00000000000001)" font-family="sans-serif" font-size="11px" fill="#FF8C00">1</text><text aria-label="Aspect Type: Super; Number of Aspects: 1; subtype: Super Success General; count: 1; Count: 1; Aspects: Chiron-Jupiter (Opposition, orbit: 0.5695°)" role="graphics-symbol" aria-roledescription="text mark" text-anchor="middle" transform="translate(50,193.00000000000003)" font-family="sans-serif" font-size="11px" fill="#FF4500">1</text></g><g class="mark-text role-mark layer_2_marks" role="graphics-object" aria-roledescription="text mark container"><text aria-label="text: Magi Maps" role="graphics-symbol" aria-roledescription="text mark" text-anchor="end" transform="translate(190,137)" font-family="sans-serif" font-size="14px" fill="gray" opacity="0.3">Magi Maps</text></g><g class="mark-group role-legend" role="graphics-symbol" aria-roledescription="legend" aria-label="Symbol legend titled 'Aspect Types' for fill color with 6 values: Super Success, Super Fame, Super Success General, Cinderella, Sexual, Romance"><g transform="translate(418,0)"><path class="background" aria-hidden="true" d="M0,0h122v92h-122Z" pointer-events="none"/><g><g class="mark-group role-legend-entry"><g transform="translate(0,16)"><path class="background" aria-hidden="true" d="M0,0h0v0h0Z" pointer-events="none"/><g><g class="mark-group role-scope" role="graphics-object" aria-roledescription="group mark container"><g transform="translate(0,0)"><path class="background" aria-hidden="true" d="M0,0h121.6103515625v11h-121.6103515625Z" pointer-events="none" opacity="1"/><g><g class="mark-symbol role-legend-symbol" pointer-events="none"><path transform="translate(6,6)" d="M5,0A5,5,0,1,1,-5,0A5,5,0,1,1,5,0" fill="#32CD32" stroke-width="1.5" opacity="1"/></g><g class="mark-text role-legend-label" pointer-events="none"><text text-anchor="start" transform="translate(16,9)" font-family="sans-serif" font-size="10px" fill="#000" opacity="1">Super Success</text></g></g><path class="foreground" aria-hidden="true" d="" pointer-events="none" display="none"/></g><g transform="translate(0,13)"><path class="background" aria-hidden="true" d="M0,0h121.6103515625v11h-121.6103515625Z" pointer-events="none" opacity="1"/><g><g class="mark-symbol role-legend-symbol" pointer-events="none"><path transform="translate(6,6)" d="M5,0A5,5,0,1,1,-5,0A5,5,0,1,1,5,0" fill="#FF8C00" stroke-width="1.5" opacity="1"/></g><g class="mark-text role-legend-label" pointer-events="none"><text text-anchor="start" transform="translate(16,9)" font-family="sans-serif" font-size="10px" fill="#000" opacity="1">Super Fame</text></g></g><path class="foreground" aria-hidden="true" d="" pointer-events="none" display="none"/></g><g transform="translate(0,26)"><path class="background" aria-hidden="true" d="M0,0h121.6103515625v11h-121.6103515625Z" pointer-events="none" opacity="1"/><g><g class="mark-symbol role-legend-symbol" pointer-events="none"><path transform="translate(6,6)" d="M5,0A5,5,0,1,1,-5,0A5,5,0,1,1,5,0" fill="#FF4500" stroke-width="1.5" opacity="1"/></g><g class="mark-text role-legend-label" pointer-events="none"><text text-anchor="start" transform="translate(16,9)" font-family="sans-serif" font-size="10px" fill="#000" opacity="1">Super Success General</text></g></g><path class="foreground" aria-hidden="true" d="" pointer-events="none" display="none"/></g><g transform="translate(0,39)"><path class="background" aria-hidden="true" d="M0,0h121.6103515625v11h-121.6103515625Z" pointer-events="none" opacity="1"/><g><g class="mark-symbol role-legend-symbol" pointer-events="none"><path transform="translate(6,6)" d="M5,0A5,5,0,1,1,-5,0A5,5,0,1,1,5,0" fill="#FF69B4" stroke-width="1.5" opacity="1"/></g><g class="mark-text role-legend-label" pointer-events="none"><text text-anchor="start" transform="translate(16,9)" font-family="sans-serif" font-size="10px" fill="#000" opacity="1">Cinderella</text></g></g><path class="foreground" aria-hidden="true" d="" pointer-events="none" display="none"/></g><g transform="translate(0,52)"><path class="background" aria-hidden="true" d="M0,0h121.6103515625v11h-121.6103515625Z" pointer-events="none" opacity="1"/><g><g class="mark-symbol role-legend-symbol" pointer-events="none"><path transform="translate(6,6)" d="M5,0A5,5,0,1,1,-5,0A5,5,0,1,1,5,0" fill="#FF0000" stroke-width="1.5" opacity="1"/></g><g class="mark-text role-legend-label" pointer-events="none"><text text-anchor="start" transform="translate(16,9)" font-family="sans-serif" font-size="10px" fill="#000" opacity="1">Sexual</text></g></g><path class="foreground" aria-hidden="true" d="" pointer-events="none" display="none"/></g><g transform="translate(0,65)"><path class="background" aria-hidden="true" d="M0,0h121.6103515625v11h-121.6103515625Z" pointer-events="none" opacity="1"/><g><g class="mark-symbol role-legend-symbol" pointer-events="none"><path transform="translate(6,6)" d="M5,0A5,5,0,1,1,-5,0A5,5,0,1,1,5,0" fill="#9370DB" stroke-width="1.5" opacity="1"/></g><g class="mark-text role-legend-label" pointer-events="none"><text text-anchor="start" transform="translate(16,9)" font-family="sans-serif" font-size="10px" fill="#000" opacity="1">Romance</text></g></g><path class="foreground" aria-hidden="true" d="" pointer-events="none" display="none"/></g></g></g><path class="foreground" aria-hidden="true" d="" pointer-events="none" display="none"/></g></g><g class="mark-text role-legend-title" pointer-events="none"><text text-anchor="start" transform="translate(0,9)" font-family="sans-serif" font-size="11px" font-weight="bold" fill="#000" opacity="1">Aspect Types</text></g></g><path class="foreground" aria-hidden="true" d="" pointer-events="none" display="none"/></g></g><g class="mark-group role-title"><g transform="translate(200,-38)"><path class="background" aria-hidden="true" d="M0,0h0v0h0Z" pointer-events="none"/><g><g class="mark-text role-title-text" role="graphics-symbol" aria-roledescription="title" aria-label="Title text 'Gabriel Matos&#xA;Born: 1983-8-26 at 14:6&#xA;Location: Miami, FL, US'" pointer-events="none"><text text-anchor="middle" transform="translate(0,11)" font-family="sans-serif" font-size="14px" font-weight="bold" fill="black" opacity="1">Gabriel Matos
Born: 1983-8-26 at 14:6
Location: Miami, FL, US</text></g><g class="mark-text role-title-subtitle" role="graphics-symbol" aria-roledescription="subtitle" aria-label="Subtitle text 'Natal Chart Special Aspects'" pointer-events="none"><text text-anchor="middle" transform="translate(0,26)" font-family="sans-serif" font-size="12px" fill="#000" opacity="1">Natal Chart Special Aspects</text></g></g><path class="foreground" aria-hidden="true" d="" pointer-events="none" display="none"/></g></g></g><path class="foreground" aria-hidden="true" d="" display="none"/></g></g></g><defs><clipPath id="clip1"><path d="M6,0L34,0C37.311490146964,0,40,2.688509853036,40,6L40,194C40,197.311490146964,37.311490146964,200,34,200L6,200C2.688509853036,200,0,197.311490146964,0,194L0,6C0,2.688509853036,2.688509853036,0,6,0Z"/></clipPath><clipPath id="clip2"><path d="M0,0h40v0h-40Z"/></clipPath><clipPath id="clip3"><path d="M6,0L34,0C37.311490146964,0,40,2.688509853036,40,6L40,93.99999999999997C40,97.31149014696398,37.311490146964,99.99999999999997,34,99.99999999999997L6,99.99999999999997C2.688509853036,99.99999999999997,0,97.31149014696398,0,93.99999999999997L0,6C0,2.688509853036,2.688509853036,0,6,0Z"/></clipPath><clipPath id="clip4"><path d="M6,0L34,0C37.311490146964,0,40,2.688509853036,40,6L40,194C40,197.311490146964,37.311490146964,200,34,200L6,200C2.688509853036,200,0,197.311490146964,0,194L0,6C0,2.688509853036,2.688509853036,0,6,0Z"/></clipPath></defs></svg>