<svg xmlns="http://www.w3.org/2000/svg" xmlns:xlink="http://www.w3.org/1999/xlink" version="1.1" class="marks" width="753" height="580" viewBox="0 0 753 580"><rect width="753" height="580" fill="white"/><g fill="none" stroke-miterlimit="10" transform="translate(95,63)"><g class="mark-group role-frame root" role="graphics-object" aria-roledescription="group mark container"><g transform="translate(0,0)"><path class="background" aria-hidden="true" d="M0,0h600v0h-600Z"/><g><g class="mark-group role-scope concat_0_group" role="graphics-object" aria-roledescription="group mark container"><g transform="translate(0,0)"><path class="background" aria-hidden="true" d="M0,0h600v200h-600Z" stroke="#ddd" stroke-width="0"/><g><g class="mark-group role-axis" aria-hidden="true"><g transform="translate(0.5,200.5)"><path class="background" aria-hidden="true" d="M0,0h0v0h0Z" pointer-events="none"/><g><g class="mark-rule role-axis-grid" pointer-events="none"><line transform="translate(0,0)" x2="0" y2="-200" stroke="#ddd" stroke-width="1" opacity="1"/><line transform="translate(40,0)" x2="0" y2="-200" stroke="#ddd" stroke-width="1" opacity="1"/><line transform="translate(80,0)" x2="0" y2="-200" stroke="#ddd" stroke-width="1" opacity="1"/><line transform="translate(120,0)" x2="0" y2="-200" stroke="#ddd" stroke-width="1" opacity="1"/><line transform="translate(160,0)" x2="0" y2="-200" stroke="#ddd" stroke-width="1" opacity="1"/><line transform="translate(200,0)" x2="0" y2="-200" stroke="#ddd" stroke-width="1" opacity="1"/><line transform="translate(240,0)" x2="0" y2="-200" stroke="#ddd" stroke-width="1" opacity="1"/><line transform="translate(280,0)" x2="0" y2="-200" stroke="#ddd" stroke-width="1" opacity="1"/><line transform="translate(320,0)" x2="0" y2="-200" stroke="#ddd" stroke-width="1" opacity="1"/><line transform="translate(360,0)" x2="0" y2="-200" stroke="#ddd" stroke-width="1" opacity="1"/><line transform="translate(400,0)" x2="0" y2="-200" stroke="#ddd" stroke-width="1" opacity="1"/><line transform="translate(440,0)" x2="0" y2="-200" stroke="#ddd" stroke-width="1" opacity="1"/><line transform="translate(480,0)" x2="0" y2="-200" stroke="#ddd" stroke-width="1" opacity="1"/><line transform="translate(520,0)" x2="0" y2="-200" stroke="#ddd" stroke-width="1" opacity="1"/><line transform="translate(560,0)" x2="0" y2="-200" stroke="#ddd" stroke-width="1" opacity="1"/><line transform="translate(600,0)" x2="0" y2="-200" stroke="#ddd" stroke-width="1" opacity="1"/></g></g><path class="foreground" aria-hidden="true" d="" pointer-events="none" display="none"/></g></g><g class="mark-group role-axis" role="graphics-symbol" aria-roledescription="axis" aria-label="X-axis titled 'Number of Aspects' for a linear scale with values from 0.0 to 3.0"><g transform="translate(0.5,200.5)"><path class="background" aria-hidden="true" d="M0,0h0v0h0Z" pointer-events="none"/><g><g class="mark-rule role-axis-tick" pointer-events="none"><line transform="translate(0,0)" x2="0" y2="5" stroke="#888" stroke-width="1" opacity="1"/><line transform="translate(40,0)" x2="0" y2="5" stroke="#888" stroke-width="1" opacity="1"/><line transform="translate(80,0)" x2="0" y2="5" stroke="#888" stroke-width="1" opacity="1"/><line transform="translate(120,0)" x2="0" y2="5" stroke="#888" stroke-width="1" opacity="1"/><line transform="translate(160,0)" x2="0" y2="5" stroke="#888" stroke-width="1" opacity="1"/><line transform="translate(200,0)" x2="0" y2="5" stroke="#888" stroke-width="1" opacity="1"/><line transform="translate(240,0)" x2="0" y2="5" stroke="#888" stroke-width="1" opacity="1"/><line transform="translate(280,0)" x2="0" y2="5" stroke="#888" stroke-width="1" opacity="1"/><line transform="translate(320,0)" x2="0" y2="5" stroke="#888" stroke-width="1" opacity="1"/><line transform="translate(360,0)" x2="0" y2="5" stroke="#888" stroke-width="1" opacity="1"/><line transform="translate(400,0)" x2="0" y2="5" stroke="#888" stroke-width="1" opacity="1"/><line transform="translate(440,0)" x2="0" y2="5" stroke="#888" stroke-width="1" opacity="1"/><line transform="translate(480,0)" x2="0" y2="5" stroke="#888" stroke-width="1" opacity="1"/><line transform="translate(520,0)" x2="0" y2="5" stroke="#888" stroke-width="1" opacity="1"/><line transform="translate(560,0)" x2="0" y2="5" stroke="#888" stroke-width="1" opacity="1"/><line transform="translate(600,0)" x2="0" y2="5" stroke="#888" stroke-width="1" opacity="1"/></g><g class="mark-text role-axis-label" pointer-events="none"><text text-anchor="start" transform="translate(0,16)" font-family="sans-serif" font-size="12px" fill="#000" opacity="1">0.0</text><text text-anchor="middle" transform="translate(40,16)" font-family="sans-serif" font-size="12px" fill="#000" opacity="1">0.2</text><text text-anchor="middle" transform="translate(80,16)" font-family="sans-serif" font-size="12px" fill="#000" opacity="1">0.4</text><text text-anchor="middle" transform="translate(119.99999999999999,16)" font-family="sans-serif" font-size="12px" fill="#000" opacity="1">0.6</text><text text-anchor="middle" transform="translate(160,16)" font-family="sans-serif" font-size="12px" fill="#000" opacity="1">0.8</text><text text-anchor="middle" transform="translate(200,16)" font-family="sans-serif" font-size="12px" fill="#000" opacity="1">1.0</text><text text-anchor="middle" transform="translate(239.99999999999997,16)" font-family="sans-serif" font-size="12px" fill="#000" opacity="1">1.2</text><text text-anchor="middle" transform="translate(279.99999999999994,16)" font-family="sans-serif" font-size="12px" fill="#000" opacity="1">1.4</text><text text-anchor="middle" transform="translate(320,16)" font-family="sans-serif" font-size="12px" fill="#000" opacity="1">1.6</text><text text-anchor="middle" transform="translate(360,16)" font-family="sans-serif" font-size="12px" fill="#000" opacity="1">1.8</text><text text-anchor="middle" transform="translate(400,16)" font-family="sans-serif" font-size="12px" fill="#000" opacity="1">2.0</text><text text-anchor="middle" transform="translate(440.00000000000006,16)" font-family="sans-serif" font-size="12px" fill="#000" opacity="1">2.2</text><text text-anchor="middle" transform="translate(479.99999999999994,16)" font-family="sans-serif" font-size="12px" fill="#000" opacity="1">2.4</text><text text-anchor="middle" transform="translate(520,16)" font-family="sans-serif" font-size="12px" fill="#000" opacity="1">2.6</text><text text-anchor="middle" transform="translate(559.9999999999999,16)" font-family="sans-serif" font-size="12px" fill="#000" opacity="1">2.8</text><text text-anchor="end" transform="translate(600,16)" font-family="sans-serif" font-size="12px" fill="#000" opacity="1">3.0</text></g><g class="mark-rule role-axis-domain" pointer-events="none"><line transform="translate(0,0)" x2="600" y2="0" stroke="#888" stroke-width="1" opacity="1"/></g><g class="mark-text role-axis-title" pointer-events="none"><text text-anchor="middle" transform="translate(300,33)" font-family="sans-serif" font-size="14px" font-weight="bold" fill="#000" opacity="1">Number of Aspects</text></g></g><path class="foreground" aria-hidden="true" d="" pointer-events="none" display="none"/></g></g><g class="mark-group role-axis" role="graphics-symbol" aria-roledescription="axis" aria-label="Y-axis for a discrete scale with 5 values: Cinderella, Marital, Romance, Saturn Clashes, Sexual"><g transform="translate(0.5,0.5)"><path class="background" aria-hidden="true" d="M0,0h0v0h0Z" pointer-events="none"/><g><g class="mark-rule role-axis-tick" pointer-events="none"><line transform="translate(0,20)" x2="-5" y2="0" stroke="#888" stroke-width="1" opacity="1"/><line transform="translate(0,60)" x2="-5" y2="0" stroke="#888" stroke-width="1" opacity="1"/><line transform="translate(0,100)" x2="-5" y2="0" stroke="#888" stroke-width="1" opacity="1"/><line transform="translate(0,140)" x2="-5" y2="0" stroke="#888" stroke-width="1" opacity="1"/><line transform="translate(0,180)" x2="-5" y2="0" stroke="#888" stroke-width="1" opacity="1"/></g><g class="mark-text role-axis-label" pointer-events="none"><text text-anchor="end" transform="translate(-7,23.5)" font-family="sans-serif" font-size="12px" fill="#000" opacity="1">Cinderella</text><text text-anchor="end" transform="translate(-7,63.5)" font-family="sans-serif" font-size="12px" fill="#000" opacity="1">Marital</text><text text-anchor="end" transform="translate(-7,103.5)" font-family="sans-serif" font-size="12px" fill="#000" opacity="1">Romance</text><text text-anchor="end" transform="translate(-7,143.5)" font-family="sans-serif" font-size="12px" fill="#000" opacity="1">Saturn Clashes</text><text text-anchor="end" transform="translate(-7,183.5)" font-family="sans-serif" font-size="12px" fill="#000" opacity="1">Sexual</text></g><g class="mark-rule role-axis-domain" pointer-events="none"><line transform="translate(0,0)" x2="0" y2="200" stroke="#888" stroke-width="1" opacity="1"/></g></g><path class="foreground" aria-hidden="true" d="" pointer-events="none" display="none"/></g></g><g class="mark-group role-scope" role="graphics-object" aria-roledescription="group mark container"><g transform="translate(0,0)"><path class="background" aria-hidden="true" d="M0,0h0v40h0Z"/><g clip-path="url(#clip10)"><g class="mark-group role-scope" role="graphics-object" aria-roledescription="group mark container"><g transform="translate(0,0)"><path class="background" aria-hidden="true" d="M0,0h0v40h0Z"/><g><g class="mark-rect role-mark concat_0_marks" role="graphics-object" aria-roledescription="rect mark container"><path aria-label="Number of Aspects: 0; type: Cinderella; Type: Cinderella; Count: 0; Details: No aspects" role="graphics-symbol" aria-roledescription="bar" d="M0,0h0v40h0Z" fill="#90EE90"/></g></g><path class="foreground" aria-hidden="true" d="" display="none"/></g></g></g><path class="foreground" aria-hidden="true" d="" display="none"/></g><g transform="translate(0,80)"><path class="background" aria-hidden="true" d="M5,0L395,0C397.75957512247,0,400,2.24042487753,400,5L400,35C400,37.75957512247,397.75957512247,40,395,40L5,40C2.24042487753,40,0,37.75957512247,0,35L0,5C0,2.24042487753,2.24042487753,0,5,0Z"/><g clip-path="url(#clip11)"><g class="mark-group role-scope" role="graphics-object" aria-roledescription="group mark container"><g transform="translate(0,0)"><path class="background" aria-hidden="true" d="M0,0h0v40h0Z"/><g><g class="mark-rect role-mark concat_0_marks" role="graphics-object" aria-roledescription="rect mark container"><path aria-label="Number of Aspects: 2; type: Romance; Type: Romance; Count: 2; Details: Chiron parallel Jupiter&#xA;Neptune parallel Venus" role="graphics-symbol" aria-roledescription="bar" d="M0,0h400v40h-400Z" fill="#FFB6C1"/></g></g><path class="foreground" aria-hidden="true" d="" display="none"/></g></g></g><path class="foreground" aria-hidden="true" d="" display="none"/></g><g transform="translate(0,160)"><path class="background" aria-hidden="true" d="M5,0L195,0C197.75957512247,0,200,2.24042487753,200,5L200,35C200,37.75957512247,197.75957512247,40,195,40L5,40C2.24042487753,40,0,37.75957512247,0,35L0,5C0,2.24042487753,2.24042487753,0,5,0Z"/><g clip-path="url(#clip12)"><g class="mark-group role-scope" role="graphics-object" aria-roledescription="group mark container"><g transform="translate(0,0)"><path class="background" aria-hidden="true" d="M0,0h0v40h0Z"/><g><g class="mark-rect role-mark concat_0_marks" role="graphics-object" aria-roledescription="rect mark container"><path aria-label="Number of Aspects: 1; type: Sexual; Type: Sexual; Count: 1; Details: Venus parallel Mars" role="graphics-symbol" aria-roledescription="bar" d="M0,0h200v40h-200Z" fill="#DDA0DD"/></g></g><path class="foreground" aria-hidden="true" d="" display="none"/></g></g></g><path class="foreground" aria-hidden="true" d="" display="none"/></g><g transform="translate(0,40)"><path class="background" aria-hidden="true" d="M0,0h0v40h0Z"/><g clip-path="url(#clip13)"><g class="mark-group role-scope" role="graphics-object" aria-roledescription="group mark container"><g transform="translate(0,0)"><path class="background" aria-hidden="true" d="M0,0h0v40h0Z"/><g><g class="mark-rect role-mark concat_0_marks" role="graphics-object" aria-roledescription="rect mark container"><path aria-label="Number of Aspects: 0; type: Marital; Type: Marital; Count: 0; Details: No aspects" role="graphics-symbol" aria-roledescription="bar" d="M0,0h0v40h0Z" fill="#FFD700"/></g></g><path class="foreground" aria-hidden="true" d="" display="none"/></g></g></g><path class="foreground" aria-hidden="true" d="" display="none"/></g><g transform="translate(0,120)"><path class="background" aria-hidden="true" d="M5,0L595,0C597.75957512247,0,600,2.24042487753,600,5L600,35C600,37.75957512247,597.75957512247,40,595,40L5,40C2.24042487753,40,0,37.75957512247,0,35L0,5C0,2.24042487753,2.24042487753,0,5,0Z"/><g clip-path="url(#clip14)"><g class="mark-group role-scope" role="graphics-object" aria-roledescription="group mark container"><g transform="translate(0,0)"><path class="background" aria-hidden="true" d="M0,0h0v40h0Z"/><g><g class="mark-rect role-mark concat_0_marks" role="graphics-object" aria-roledescription="rect mark container"><path aria-label="Number of Aspects: 3; type: Saturn Clashes; Type: Saturn Clashes; Count: 3; Details: ⚠️ Lisa Marie Presley's Saturn square Nicolas Cage's Mercury&#xA;⚠️ Lisa Marie Presley's Saturn quincunx Nicolas Cage's Uranus&#xA;⚠️ Nicolas Cage's Saturn quincunx Lisa Marie Presley's Pluto" role="graphics-symbol" aria-roledescription="bar" d="M0,0h600v40h-600Z" fill="#FF6B6B"/></g></g><path class="foreground" aria-hidden="true" d="" display="none"/></g></g></g><path class="foreground" aria-hidden="true" d="" display="none"/></g></g><g class="mark-group role-title"><g transform="translate(300,-20)"><path class="background" aria-hidden="true" d="M0,0h0v0h0Z" pointer-events="none"/><g><g class="mark-text role-title-text" role="graphics-symbol" aria-roledescription="title" aria-label="Title text 'Aspect Connections'" pointer-events="none"><text text-anchor="middle" transform="translate(0,13)" font-family="sans-serif" font-size="16px" font-weight="bold" fill="#000" opacity="1">Aspect Connections</text></g></g><path class="foreground" aria-hidden="true" d="" pointer-events="none" display="none"/></g></g></g><path class="foreground" aria-hidden="true" d="" display="none"/></g></g><g class="mark-group role-scope concat_1_group" role="graphics-object" aria-roledescription="group mark container"><g transform="translate(0,276)"><path class="background" aria-hidden="true" d="M0,0h600v200h-600Z" stroke="#ddd" stroke-width="0"/><g><g class="mark-group role-axis" aria-hidden="true"><g transform="translate(0.5,200.5)"><path class="background" aria-hidden="true" d="M0,0h0v0h0Z" pointer-events="none"/><g><g class="mark-rule role-axis-grid" pointer-events="none"><line transform="translate(0,0)" x2="0" y2="-200" stroke="#ddd" stroke-width="1" opacity="1"/><line transform="translate(30,0)" x2="0" y2="-200" stroke="#ddd" stroke-width="1" opacity="1"/><line transform="translate(60,0)" x2="0" y2="-200" stroke="#ddd" stroke-width="1" opacity="1"/><line transform="translate(90,0)" x2="0" y2="-200" stroke="#ddd" stroke-width="1" opacity="1"/><line transform="translate(120,0)" x2="0" y2="-200" stroke="#ddd" stroke-width="1" opacity="1"/><line transform="translate(150,0)" x2="0" y2="-200" stroke="#ddd" stroke-width="1" opacity="1"/><line transform="translate(180,0)" x2="0" y2="-200" stroke="#ddd" stroke-width="1" opacity="1"/><line transform="translate(210,0)" x2="0" y2="-200" stroke="#ddd" stroke-width="1" opacity="1"/><line transform="translate(240,0)" x2="0" y2="-200" stroke="#ddd" stroke-width="1" opacity="1"/><line transform="translate(270,0)" x2="0" y2="-200" stroke="#ddd" stroke-width="1" opacity="1"/><line transform="translate(300,0)" x2="0" y2="-200" stroke="#ddd" stroke-width="1" opacity="1"/><line transform="translate(330,0)" x2="0" y2="-200" stroke="#ddd" stroke-width="1" opacity="1"/><line transform="translate(360,0)" x2="0" y2="-200" stroke="#ddd" stroke-width="1" opacity="1"/><line transform="translate(390,0)" x2="0" y2="-200" stroke="#ddd" stroke-width="1" opacity="1"/><line transform="translate(420,0)" x2="0" y2="-200" stroke="#ddd" stroke-width="1" opacity="1"/><line transform="translate(450,0)" x2="0" y2="-200" stroke="#ddd" stroke-width="1" opacity="1"/><line transform="translate(480,0)" x2="0" y2="-200" stroke="#ddd" stroke-width="1" opacity="1"/><line transform="translate(510,0)" x2="0" y2="-200" stroke="#ddd" stroke-width="1" opacity="1"/><line transform="translate(540,0)" x2="0" y2="-200" stroke="#ddd" stroke-width="1" opacity="1"/><line transform="translate(570,0)" x2="0" y2="-200" stroke="#ddd" stroke-width="1" opacity="1"/><line transform="translate(600,0)" x2="0" y2="-200" stroke="#ddd" stroke-width="1" opacity="1"/></g></g><path class="foreground" aria-hidden="true" d="" pointer-events="none" display="none"/></g></g><g class="mark-group role-axis" role="graphics-symbol" aria-roledescription="axis" aria-label="X-axis titled 'Score' for a linear scale with values from 0 to 100"><g transform="translate(0.5,200.5)"><path class="background" aria-hidden="true" d="M0,0h0v0h0Z" pointer-events="none"/><g><g class="mark-rule role-axis-tick" pointer-events="none"><line transform="translate(0,0)" x2="0" y2="5" stroke="#888" stroke-width="1" opacity="1"/><line transform="translate(30,0)" x2="0" y2="5" stroke="#888" stroke-width="1" opacity="1"/><line transform="translate(60,0)" x2="0" y2="5" stroke="#888" stroke-width="1" opacity="1"/><line transform="translate(90,0)" x2="0" y2="5" stroke="#888" stroke-width="1" opacity="1"/><line transform="translate(120,0)" x2="0" y2="5" stroke="#888" stroke-width="1" opacity="1"/><line transform="translate(150,0)" x2="0" y2="5" stroke="#888" stroke-width="1" opacity="1"/><line transform="translate(180,0)" x2="0" y2="5" stroke="#888" stroke-width="1" opacity="1"/><line transform="translate(210,0)" x2="0" y2="5" stroke="#888" stroke-width="1" opacity="1"/><line transform="translate(240,0)" x2="0" y2="5" stroke="#888" stroke-width="1" opacity="1"/><line transform="translate(270,0)" x2="0" y2="5" stroke="#888" stroke-width="1" opacity="1"/><line transform="translate(300,0)" x2="0" y2="5" stroke="#888" stroke-width="1" opacity="1"/><line transform="translate(330,0)" x2="0" y2="5" stroke="#888" stroke-width="1" opacity="1"/><line transform="translate(360,0)" x2="0" y2="5" stroke="#888" stroke-width="1" opacity="1"/><line transform="translate(390,0)" x2="0" y2="5" stroke="#888" stroke-width="1" opacity="1"/><line transform="translate(420,0)" x2="0" y2="5" stroke="#888" stroke-width="1" opacity="1"/><line transform="translate(450,0)" x2="0" y2="5" stroke="#888" stroke-width="1" opacity="1"/><line transform="translate(480,0)" x2="0" y2="5" stroke="#888" stroke-width="1" opacity="1"/><line transform="translate(510,0)" x2="0" y2="5" stroke="#888" stroke-width="1" opacity="1"/><line transform="translate(540,0)" x2="0" y2="5" stroke="#888" stroke-width="1" opacity="1"/><line transform="translate(570,0)" x2="0" y2="5" stroke="#888" stroke-width="1" opacity="1"/><line transform="translate(600,0)" x2="0" y2="5" stroke="#888" stroke-width="1" opacity="1"/></g><g class="mark-text role-axis-label" pointer-events="none"><text text-anchor="start" transform="translate(0,16)" font-family="sans-serif" font-size="12px" fill="#000" opacity="1">0</text><text text-anchor="middle" transform="translate(30,16)" font-family="sans-serif" font-size="12px" fill="#000" opacity="1">5</text><text text-anchor="middle" transform="translate(60,16)" font-family="sans-serif" font-size="12px" fill="#000" opacity="1">10</text><text text-anchor="middle" transform="translate(90,16)" font-family="sans-serif" font-size="12px" fill="#000" opacity="1">15</text><text text-anchor="middle" transform="translate(120,16)" font-family="sans-serif" font-size="12px" fill="#000" opacity="1">20</text><text text-anchor="middle" transform="translate(150,16)" font-family="sans-serif" font-size="12px" fill="#000" opacity="1">25</text><text text-anchor="middle" transform="translate(180,16)" font-family="sans-serif" font-size="12px" fill="#000" opacity="1">30</text><text text-anchor="middle" transform="translate(210,16)" font-family="sans-serif" font-size="12px" fill="#000" opacity="1">35</text><text text-anchor="middle" transform="translate(240,16)" font-family="sans-serif" font-size="12px" fill="#000" opacity="1">40</text><text text-anchor="middle" transform="translate(270,16)" font-family="sans-serif" font-size="12px" fill="#000" opacity="1">45</text><text text-anchor="middle" transform="translate(300,16)" font-family="sans-serif" font-size="12px" fill="#000" opacity="1">50</text><text text-anchor="middle" transform="translate(330,16)" font-family="sans-serif" font-size="12px" fill="#000" opacity="1">55</text><text text-anchor="middle" transform="translate(360,16)" font-family="sans-serif" font-size="12px" fill="#000" opacity="1">60</text><text text-anchor="middle" transform="translate(390,16)" font-family="sans-serif" font-size="12px" fill="#000" opacity="1">65</text><text text-anchor="middle" transform="translate(420,16)" font-family="sans-serif" font-size="12px" fill="#000" opacity="1">70</text><text text-anchor="middle" transform="translate(450,16)" font-family="sans-serif" font-size="12px" fill="#000" opacity="1">75</text><text text-anchor="middle" transform="translate(480,16)" font-family="sans-serif" font-size="12px" fill="#000" opacity="1">80</text><text text-anchor="middle" transform="translate(510,16)" font-family="sans-serif" font-size="12px" fill="#000" opacity="1">85</text><text text-anchor="middle" transform="translate(540,16)" font-family="sans-serif" font-size="12px" fill="#000" opacity="1">90</text><text text-anchor="middle" transform="translate(570,16)" font-family="sans-serif" font-size="12px" fill="#000" opacity="1">95</text><text text-anchor="end" transform="translate(600,16)" font-family="sans-serif" font-size="12px" fill="#000" opacity="1">100</text></g><g class="mark-rule role-axis-domain" pointer-events="none"><line transform="translate(0,0)" x2="600" y2="0" stroke="#888" stroke-width="1" opacity="1"/></g><g class="mark-text role-axis-title" pointer-events="none"><text text-anchor="middle" transform="translate(300,33)" font-family="sans-serif" font-size="14px" font-weight="bold" fill="#000" opacity="1">Score</text></g></g><path class="foreground" aria-hidden="true" d="" pointer-events="none" display="none"/></g></g><g class="mark-group role-axis" role="graphics-symbol" aria-roledescription="axis" aria-label="Y-axis for a discrete scale with 4 values: Romance, Compatibility, Longevity, Overall"><g transform="translate(0.5,0.5)"><path class="background" aria-hidden="true" d="M0,0h0v0h0Z" pointer-events="none"/><g><g class="mark-rule role-axis-tick" pointer-events="none"><line transform="translate(0,25)" x2="-5" y2="0" stroke="#888" stroke-width="1" opacity="1"/><line transform="translate(0,75)" x2="-5" y2="0" stroke="#888" stroke-width="1" opacity="1"/><line transform="translate(0,125)" x2="-5" y2="0" stroke="#888" stroke-width="1" opacity="1"/><line transform="translate(0,175)" x2="-5" y2="0" stroke="#888" stroke-width="1" opacity="1"/></g><g class="mark-text role-axis-label" pointer-events="none"><text text-anchor="end" transform="translate(-7,28.5)" font-family="sans-serif" font-size="12px" fill="#000" opacity="1">Romance</text><text text-anchor="end" transform="translate(-7,78.5)" font-family="sans-serif" font-size="12px" fill="#000" opacity="1">Compatibility</text><text text-anchor="end" transform="translate(-7,128.5)" font-family="sans-serif" font-size="12px" fill="#000" opacity="1">Longevity</text><text text-anchor="end" transform="translate(-7,178.5)" font-family="sans-serif" font-size="12px" fill="#000" opacity="1">Overall</text></g><g class="mark-rule role-axis-domain" pointer-events="none"><line transform="translate(0,0)" x2="0" y2="200" stroke="#888" stroke-width="1" opacity="1"/></g></g><path class="foreground" aria-hidden="true" d="" pointer-events="none" display="none"/></g></g><g class="mark-rect role-mark concat_1_layer_0_marks" role="graphics-object" aria-roledescription="rect mark container"><path aria-label="category: Romance" role="graphics-symbol" aria-roledescription="bar" d="M0,10h100v30h-100Z" fill="#eee"/><path aria-label="category: Compatibility" role="graphics-symbol" aria-roledescription="bar" d="M0,60h100v30h-100Z" fill="#eee"/><path aria-label="category: Longevity" role="graphics-symbol" aria-roledescription="bar" d="M0,110h100v30h-100Z" fill="#eee"/><path aria-label="category: Overall" role="graphics-symbol" aria-roledescription="bar" d="M0,160h100v30h-100Z" fill="#eee"/></g><g class="mark-group role-scope" role="graphics-object" aria-roledescription="group mark container"><g transform="translate(0,10)"><path class="background" aria-hidden="true" d="M5,0L355,0C357.75957512247,0,360,2.24042487753,360,5L360,25C360,27.75957512247,357.75957512247,30,355,30L5,30C2.24042487753,30,0,27.75957512247,0,25L0,5C0,2.24042487753,2.24042487753,0,5,0Z"/><g clip-path="url(#clip15)"><g class="mark-group role-scope" role="graphics-object" aria-roledescription="group mark container"><g transform="translate(0,0)"><path class="background" aria-hidden="true" d="M0,0h0v30h0Z"/><g><g class="mark-rect role-mark concat_1_layer_1_marks" role="graphics-object" aria-roledescription="rect mark container"><path aria-label="Score: 60; category: Romance; score: 60; Category: Romance" role="graphics-symbol" aria-roledescription="bar" d="M0,0h360v30h-360Z" fill="rgb(218, 211, 55)"/></g></g><path class="foreground" aria-hidden="true" d="" display="none"/></g></g></g><path class="foreground" aria-hidden="true" d="" display="none"/></g><g transform="translate(0,60)"><path class="background" aria-hidden="true" d="M0,0h0v30h0Z"/><g clip-path="url(#clip16)"><g class="mark-group role-scope" role="graphics-object" aria-roledescription="group mark container"><g transform="translate(0,0)"><path class="background" aria-hidden="true" d="M0,0h0v30h0Z"/><g><g class="mark-rect role-mark concat_1_layer_1_marks" role="graphics-object" aria-roledescription="rect mark container"><path aria-label="Score: 0; category: Compatibility; score: 0; Category: Compatibility" role="graphics-symbol" aria-roledescription="bar" d="M0,0h0v30h0Z" fill="rgb(255, 107, 107)"/></g></g><path class="foreground" aria-hidden="true" d="" display="none"/></g></g></g><path class="foreground" aria-hidden="true" d="" display="none"/></g><g transform="translate(0,110)"><path class="background" aria-hidden="true" d="M0,0h0v30h0Z"/><g clip-path="url(#clip17)"><g class="mark-group role-scope" role="graphics-object" aria-roledescription="group mark container"><g transform="translate(0,0)"><path class="background" aria-hidden="true" d="M0,0h0v30h0Z"/><g><g class="mark-rect role-mark concat_1_layer_1_marks" role="graphics-object" aria-roledescription="rect mark container"><path aria-label="Score: 0; category: Longevity; score: 0; Category: Longevity" role="graphics-symbol" aria-roledescription="bar" d="M0,0h0v30h0Z" fill="rgb(255, 107, 107)"/></g></g><path class="foreground" aria-hidden="true" d="" display="none"/></g></g></g><path class="foreground" aria-hidden="true" d="" display="none"/></g><g transform="translate(0,160)"><path class="background" aria-hidden="true" d="M5,0L121,0C123.75957512247,0,126,2.24042487753,126,5L126,25C126,27.75957512247,123.75957512247,30,121,30L5,30C2.24042487753,30,0,27.75957512247,0,25L0,5C0,2.24042487753,2.24042487753,0,5,0Z"/><g clip-path="url(#clip18)"><g class="mark-group role-scope" role="graphics-object" aria-roledescription="group mark container"><g transform="translate(0,0)"><path class="background" aria-hidden="true" d="M0,0h0v30h0Z"/><g><g class="mark-rect role-mark concat_1_layer_1_marks" role="graphics-object" aria-roledescription="rect mark container"><path aria-label="Score: 21; category: Overall; score: 21; Category: Overall" role="graphics-symbol" aria-roledescription="bar" d="M0,0h126v30h-126Z" fill="rgb(255, 150, 81)"/></g></g><path class="foreground" aria-hidden="true" d="" display="none"/></g></g></g><path class="foreground" aria-hidden="true" d="" display="none"/></g></g><g class="mark-text role-mark concat_1_layer_2_marks" role="graphics-object" aria-roledescription="text mark container"><text aria-label="Score: 60; category: Romance; score: 60" role="graphics-symbol" aria-roledescription="text mark" text-anchor="start" transform="translate(365,29)" font-family="sans-serif" font-size="14px" fill="white">60</text><text aria-label="Score: 0; category: Compatibility; score: 0" role="graphics-symbol" aria-roledescription="text mark" text-anchor="start" transform="translate(5,79)" font-family="sans-serif" font-size="14px" fill="white">0</text><text aria-label="Score: 0; category: Longevity; score: 0" role="graphics-symbol" aria-roledescription="text mark" text-anchor="start" transform="translate(5,129)" font-family="sans-serif" font-size="14px" fill="white">0</text><text aria-label="Score: 21; category: Overall; score: 21" role="graphics-symbol" aria-roledescription="text mark" text-anchor="start" transform="translate(131,179)" font-family="sans-serif" font-size="14px" fill="white">21</text></g><g class="mark-group role-legend" role="graphics-symbol" aria-roledescription="legend" aria-label="Gradient legend titled 'score' for fill color with values from 0 to 100"><g transform="translate(618,0)"><path class="background" aria-hidden="true" d="M0,0h35v216h-35Z" pointer-events="none"/><g><g class="mark-group role-legend-entry"><g transform="translate(0,16)"><path class="background" aria-hidden="true" d="M0,0h0v0h0Z" pointer-events="none"/><g><g class="mark-rect role-legend-gradient" pointer-events="none"><path d="M0,0h16v200h-16Z" fill="url(#gradient_1)" stroke="#ddd" stroke-width="0" opacity="1"/></g><g class="mark-text role-legend-label" pointer-events="none"><text text-anchor="start" transform="translate(18,198)" font-family="sans-serif" font-size="10px" fill="#000" opacity="1">0</text><text text-anchor="start" transform="translate(18,163)" font-family="sans-serif" font-size="10px" fill="#000" opacity="1">20</text><text text-anchor="start" transform="translate(18,123)" font-family="sans-serif" font-size="10px" fill="#000" opacity="1">40</text><text text-anchor="start" transform="translate(18,83)" font-family="sans-serif" font-size="10px" fill="#000" opacity="1">60</text><text text-anchor="start" transform="translate(18,42.99999999999999)" font-family="sans-serif" font-size="10px" fill="#000" opacity="1">80</text><text text-anchor="start" transform="translate(18,8)" font-family="sans-serif" font-size="10px" fill="#000" opacity="1">100</text></g></g><path class="foreground" aria-hidden="true" d="" pointer-events="none" display="none"/></g></g><g class="mark-text role-legend-title" pointer-events="none"><text text-anchor="start" transform="translate(0,9)" font-family="sans-serif" font-size="11px" font-weight="bold" fill="#000" opacity="1">score</text></g></g><path class="foreground" aria-hidden="true" d="" pointer-events="none" display="none"/></g></g><g class="mark-group role-title"><g transform="translate(300,-20)"><path class="background" aria-hidden="true" d="M0,0h0v0h0Z" pointer-events="none"/><g><g class="mark-text role-title-text" role="graphics-symbol" aria-roledescription="title" aria-label="Title text 'Compatibility Scores'" pointer-events="none"><text text-anchor="middle" transform="translate(0,13)" font-family="sans-serif" font-size="16px" font-weight="bold" fill="#000" opacity="1">Compatibility Scores</text></g></g><path class="foreground" aria-hidden="true" d="" pointer-events="none" display="none"/></g></g></g><path class="foreground" aria-hidden="true" d="" display="none"/></g></g><g class="mark-group role-title"><g transform="translate(281.978515625,-58)"><path class="background" aria-hidden="true" d="M0,0h0v0h0Z" pointer-events="none"/><g><g class="mark-text role-title-text" role="graphics-symbol" aria-roledescription="title" aria-label="Title text 'Relationship Analysis: Lisa Marie Presley &amp; Nicolas Cage'" pointer-events="none"><text text-anchor="middle" transform="translate(0,16)" font-family="sans-serif" font-size="20px" font-weight="bold" fill="#000" opacity="1">Relationship Analysis: Lisa Marie Presley &amp; Nicolas Cage</text></g><g class="mark-text role-title-subtitle" role="graphics-symbol" aria-roledescription="subtitle" aria-label="Subtitle text 'Hover over elements for details'" pointer-events="none"><text text-anchor="middle" transform="translate(0,32)" font-family="sans-serif" font-size="12px" fill="#000" opacity="1">Hover over elements for details</text></g></g><path class="foreground" aria-hidden="true" d="" pointer-events="none" display="none"/></g></g></g><path class="foreground" aria-hidden="true" d="" display="none"/></g></g></g><defs><linearGradient id="gradient_1" x1="0" x2="0" y1="1" y2="0"><stop offset="0" stop-color="rgb(255, 107, 107)"/><stop offset="0.05" stop-color="rgb(255, 116, 101)"/><stop offset="0.1" stop-color="rgb(255, 126, 95)"/><stop offset="0.15" stop-color="rgb(255, 137, 89)"/><stop offset="0.2" stop-color="rgb(255, 148, 83)"/><stop offset="0.25" stop-color="rgb(255, 159, 77)"/><stop offset="0.3" stop-color="rgb(255, 171, 71)"/><stop offset="0.35" stop-color="rgb(255, 182, 67)"/><stop offset="0.4" stop-color="rgb(255, 194, 63)"/><stop offset="0.45" stop-color="rgb(255, 205, 61)"/><stop offset="0.5" stop-color="rgb(255, 217, 61)"/><stop offset="0.55" stop-color="rgb(236, 214, 57)"/><stop offset="0.6" stop-color="rgb(218, 211, 55)"/><stop offset="0.65" stop-color="rgb(199, 208, 55)"/><stop offset="0.7" stop-color="rgb(181, 204, 57)"/><stop offset="0.75" stop-color="rgb(163, 200, 59)"/><stop offset="0.8" stop-color="rgb(146, 196, 63)"/><stop offset="0.85" stop-color="rgb(129, 191, 67)"/><stop offset="0.9" stop-color="rgb(111, 186, 71)"/><stop offset="0.95" stop-color="rgb(94, 181, 76)"/><stop offset="1" stop-color="rgb(76, 175, 80)"/></linearGradient><clipPath id="clip10"><path d="M0,0h0v40h0Z"/></clipPath><clipPath id="clip11"><path d="M5,0L395,0C397.75957512247,0,400,2.24042487753,400,5L400,35C400,37.75957512247,397.75957512247,40,395,40L5,40C2.24042487753,40,0,37.75957512247,0,35L0,5C0,2.24042487753,2.24042487753,0,5,0Z"/></clipPath><clipPath id="clip12"><path d="M5,0L195,0C197.75957512247,0,200,2.24042487753,200,5L200,35C200,37.75957512247,197.75957512247,40,195,40L5,40C2.24042487753,40,0,37.75957512247,0,35L0,5C0,2.24042487753,2.24042487753,0,5,0Z"/></clipPath><clipPath id="clip13"><path d="M0,0h0v40h0Z"/></clipPath><clipPath id="clip14"><path d="M5,0L595,0C597.75957512247,0,600,2.24042487753,600,5L600,35C600,37.75957512247,597.75957512247,40,595,40L5,40C2.24042487753,40,0,37.75957512247,0,35L0,5C0,2.24042487753,2.24042487753,0,5,0Z"/></clipPath><clipPath id="clip15"><path d="M5,0L355,0C357.75957512247,0,360,2.24042487753,360,5L360,25C360,27.75957512247,357.75957512247,30,355,30L5,30C2.24042487753,30,0,27.75957512247,0,25L0,5C0,2.24042487753,2.24042487753,0,5,0Z"/></clipPath><clipPath id="clip16"><path d="M0,0h0v30h0Z"/></clipPath><clipPath id="clip17"><path d="M0,0h0v30h0Z"/></clipPath><clipPath id="clip18"><path d="M5,0L121,0C123.75957512247,0,126,2.24042487753,126,5L126,25C126,27.75957512247,123.75957512247,30,121,30L5,30C2.24042487753,30,0,27.75957512247,0,25L0,5C0,2.24042487753,2.24042487753,0,5,0Z"/></clipPath></defs></svg>