<svg xmlns="http://www.w3.org/2000/svg" xmlns:xlink="http://www.w3.org/1999/xlink" version="1.1" class="marks" width="482" height="428" viewBox="0 0 482 428"><rect width="482" height="428" fill="white"/><g fill="none" stroke-miterlimit="10" transform="translate(47,43)"><g class="mark-group role-frame root" role="graphics-object" aria-roledescription="group mark container"><g transform="translate(0,0)"><path class="background" aria-hidden="true" d="M0.5,0.5h400v300h-400Z" stroke="#ddd"/><g><g class="mark-group role-axis" aria-hidden="true"><g transform="translate(0.5,300.5)"><path class="background" aria-hidden="true" d="M0,0h0v0h0Z" pointer-events="none"/><g><g class="mark-rule role-axis-grid" pointer-events="none"><line transform="translate(50,-300)" x2="0" y2="300" stroke="#ddd" stroke-width="1" opacity="1"/><line transform="translate(150,-300)" x2="0" y2="300" stroke="#ddd" stroke-width="1" opacity="1"/><line transform="translate(250,-300)" x2="0" y2="300" stroke="#ddd" stroke-width="1" opacity="1"/><line transform="translate(350,-300)" x2="0" y2="300" stroke="#ddd" stroke-width="1" opacity="1"/></g></g><path class="foreground" aria-hidden="true" d="" pointer-events="none" display="none"/></g></g><g class="mark-group role-axis" aria-hidden="true"><g transform="translate(0.5,0.5)"><path class="background" aria-hidden="true" d="M0,0h0v0h0Z" pointer-events="none"/><g><g class="mark-rule role-axis-grid" pointer-events="none"><line transform="translate(0,300)" x2="400" y2="0" stroke="#ddd" stroke-width="1" stroke-dasharray="2,2" opacity="1"/><line transform="translate(0,150)" x2="400" y2="0" stroke="#ddd" stroke-width="1" stroke-dasharray="2,2" opacity="1"/><line transform="translate(0,0)" x2="400" y2="0" stroke="#ddd" stroke-width="1" stroke-dasharray="2,2" opacity="1"/></g></g><path class="foreground" aria-hidden="true" d="" pointer-events="none" display="none"/></g></g><g class="mark-group role-axis" role="graphics-symbol" aria-roledescription="axis" aria-label="X-axis titled 'Aspect Type' for a discrete scale with 4 values: Super, Cinderella, Sexual, Romance"><g transform="translate(0.5,300.5)"><path class="background" aria-hidden="true" d="M0,0h0v0h0Z" pointer-events="none"/><g><g class="mark-rule role-axis-tick" pointer-events="none"><line transform="translate(50,0)" x2="0" y2="5" stroke="#888" stroke-width="1" opacity="1"/><line transform="translate(150,0)" x2="0" y2="5" stroke="#888" stroke-width="1" opacity="1"/><line transform="translate(250,0)" x2="0" y2="5" stroke="#888" stroke-width="1" opacity="1"/><line transform="translate(350,0)" x2="0" y2="5" stroke="#888" stroke-width="1" opacity="1"/></g><g class="mark-text role-axis-label" pointer-events="none"><text text-anchor="end" transform="translate(49.5,7) rotate(270) translate(0,4)" font-family="sans-serif" font-size="12px" fill="#000" opacity="1">Super</text><text text-anchor="end" transform="translate(149.5,7) rotate(270) translate(0,4)" font-family="sans-serif" font-size="12px" fill="#000" opacity="1">Cinderella</text><text text-anchor="end" transform="translate(249.5,7) rotate(270) translate(0,4)" font-family="sans-serif" font-size="12px" fill="#000" opacity="1">Sexual</text><text text-anchor="end" transform="translate(349.5,7) rotate(270) translate(0,4)" font-family="sans-serif" font-size="12px" fill="#000" opacity="1">Romance</text></g><g class="mark-rule role-axis-domain" pointer-events="none"><line transform="translate(0,0)" x2="400" y2="0" stroke="#888" stroke-width="1" opacity="1"/></g><g class="mark-text role-axis-title" pointer-events="none"><text text-anchor="middle" transform="translate(200,76.029296875)" font-family="sans-serif" font-size="14px" font-weight="bold" fill="#000" opacity="1">Aspect Type</text></g></g><path class="foreground" aria-hidden="true" d="" pointer-events="none" display="none"/></g></g><g class="mark-group role-axis" role="graphics-symbol" aria-roledescription="axis" aria-label="Y-axis titled 'Number of Aspects' for a linear scale with values from 0.0 to 2.0"><g transform="translate(0.5,0.5)"><path class="background" aria-hidden="true" d="M0,0h0v0h0Z" pointer-events="none"/><g><g class="mark-rule role-axis-tick" pointer-events="none"><line transform="translate(0,300)" x2="-5" y2="0" stroke="#888" stroke-width="1" opacity="1"/><line transform="translate(0,150)" x2="-5" y2="0" stroke="#888" stroke-width="1" opacity="1"/><line transform="translate(0,0)" x2="-5" y2="0" stroke="#888" stroke-width="1" opacity="1"/></g><g class="mark-text role-axis-label" pointer-events="none"><text text-anchor="end" transform="translate(-7,304)" font-family="sans-serif" font-size="12px" fill="#000" opacity="1">0.0</text><text text-anchor="end" transform="translate(-7,154)" font-family="sans-serif" font-size="12px" fill="#000" opacity="1">1.0</text><text text-anchor="end" transform="translate(-7,4)" font-family="sans-serif" font-size="12px" fill="#000" opacity="1">2.0</text></g><g class="mark-rule role-axis-domain" pointer-events="none"><line transform="translate(0,300)" x2="0" y2="-300" stroke="#888" stroke-width="1" opacity="1"/></g><g class="mark-text role-axis-title" pointer-events="none"><text text-anchor="middle" transform="translate(-27.681640625,150) rotate(-90) translate(0,-3)" font-family="sans-serif" font-size="14px" font-weight="bold" fill="#000" opacity="1">Number of Aspects</text></g></g><path class="foreground" aria-hidden="true" d="" pointer-events="none" display="none"/></g></g><g class="mark-group role-scope" role="graphics-object" aria-roledescription="group mark container"><g transform="translate(30,150)"><path class="background" aria-hidden="true" d="M6,0L34,0C37.311490146964,0,40,2.688509853036,40,6L40,144C40,147.311490146964,37.311490146964,150,34,150L6,150C2.688509853036,150,0,147.311490146964,0,144L0,6C0,2.688509853036,2.688509853036,0,6,0Z"/><g clip-path="url(#clip1)"><g class="mark-group role-scope" role="graphics-object" aria-roledescription="group mark container"><g transform="translate(0,-150)"><path class="background" aria-hidden="true" d="M0,0h40v0h-40Z"/><g><g class="mark-rect role-mark layer_0_marks" role="graphics-object" aria-roledescription="rect mark container"><path aria-label="Aspect Type: Super; Number of Aspects: 1; type: Super; Count: 1; Aspects: Jupiter-Uranus (Parallel, orbit: 0.3944°)" role="graphics-symbol" aria-roledescription="bar" d="M0,150h40v150h-40Z" fill="#FFD700"/></g></g><path class="foreground" aria-hidden="true" d="" display="none"/></g></g></g><path class="foreground" aria-hidden="true" d="" display="none"/></g><g transform="translate(130,150)"><path class="background" aria-hidden="true" d="M6,0L34,0C37.311490146964,0,40,2.688509853036,40,6L40,144C40,147.311490146964,37.311490146964,150,34,150L6,150C2.688509853036,150,0,147.311490146964,0,144L0,6C0,2.688509853036,2.688509853036,0,6,0Z"/><g clip-path="url(#clip2)"><g class="mark-group role-scope" role="graphics-object" aria-roledescription="group mark container"><g transform="translate(0,-150)"><path class="background" aria-hidden="true" d="M0,0h40v0h-40Z"/><g><g class="mark-rect role-mark layer_0_marks" role="graphics-object" aria-roledescription="rect mark container"><path aria-label="Aspect Type: Cinderella; Number of Aspects: 1; type: Cinderella; Count: 1; Aspects: Neptune-Chiron (Quincunx, orbit: 1.359°)" role="graphics-symbol" aria-roledescription="bar" d="M0,150h40v150h-40Z" fill="#FF69B4"/></g></g><path class="foreground" aria-hidden="true" d="" display="none"/></g></g></g><path class="foreground" aria-hidden="true" d="" display="none"/></g><g transform="translate(230,300)"><path class="background" aria-hidden="true" d="M0,0h40v0h-40Z"/><g clip-path="url(#clip3)"><g class="mark-group role-scope" role="graphics-object" aria-roledescription="group mark container"><g transform="translate(0,-300)"><path class="background" aria-hidden="true" d="M0,0h40v0h-40Z"/><g><g class="mark-rect role-mark layer_0_marks" role="graphics-object" aria-roledescription="rect mark container"><path aria-label="Aspect Type: Sexual; Number of Aspects: 0; type: Sexual; Count: 0; Aspects: None" role="graphics-symbol" aria-roledescription="bar" d="M0,300h40v0h-40Z" fill="#FF0000"/></g></g><path class="foreground" aria-hidden="true" d="" display="none"/></g></g></g><path class="foreground" aria-hidden="true" d="" display="none"/></g><g transform="translate(330,150)"><path class="background" aria-hidden="true" d="M6,0L34,0C37.311490146964,0,40,2.688509853036,40,6L40,144C40,147.311490146964,37.311490146964,150,34,150L6,150C2.688509853036,150,0,147.311490146964,0,144L0,6C0,2.688509853036,2.688509853036,0,6,0Z"/><g clip-path="url(#clip4)"><g class="mark-group role-scope" role="graphics-object" aria-roledescription="group mark container"><g transform="translate(0,-150)"><path class="background" aria-hidden="true" d="M0,0h40v0h-40Z"/><g><g class="mark-rect role-mark layer_0_marks" role="graphics-object" aria-roledescription="rect mark container"><path aria-label="Aspect Type: Romance; Number of Aspects: 1; type: Romance; Count: 1; Aspects: Neptune-Chiron (Quincunx, orbit: 1.359°)" role="graphics-symbol" aria-roledescription="bar" d="M0,150h40v150h-40Z" fill="#9370DB"/></g></g><path class="foreground" aria-hidden="true" d="" display="none"/></g></g></g><path class="foreground" aria-hidden="true" d="" display="none"/></g></g><g class="mark-text role-mark layer_1_marks" role="graphics-object" aria-roledescription="text mark container"><text aria-label="Aspect Type: Super; Number of Aspects: 1; type: Super; count: 1; Count: 1; Aspects: Jupiter-Uranus (Parallel, orbit: 0.3944°)" role="graphics-symbol" aria-roledescription="text mark" text-anchor="middle" transform="translate(50,143)" font-family="sans-serif" font-size="11px" fill="#FFD700">1</text><text aria-label="Aspect Type: Cinderella; Number of Aspects: 1; type: Cinderella; count: 1; Count: 1; Aspects: Neptune-Chiron (Quincunx, orbit: 1.359°)" role="graphics-symbol" aria-roledescription="text mark" text-anchor="middle" transform="translate(150,143)" font-family="sans-serif" font-size="11px" fill="#FF69B4">1</text><text aria-label="Aspect Type: Sexual; Number of Aspects: 0; type: Sexual; count: 0; Count: 0; Aspects: None" role="graphics-symbol" aria-roledescription="text mark" text-anchor="middle" transform="translate(250,293)" font-family="sans-serif" font-size="11px" fill="#FF0000">0</text><text aria-label="Aspect Type: Romance; Number of Aspects: 1; type: Romance; count: 1; Count: 1; Aspects: Neptune-Chiron (Quincunx, orbit: 1.359°)" role="graphics-symbol" aria-roledescription="text mark" text-anchor="middle" transform="translate(350,143)" font-family="sans-serif" font-size="11px" fill="#9370DB">1</text></g><g class="mark-group role-title"><g transform="translate(200,-38)"><path class="background" aria-hidden="true" d="M0,0h0v0h0Z" pointer-events="none"/><g><g class="mark-text role-title-text" role="graphics-symbol" aria-roledescription="title" aria-label="Title text 'Mark Zuckerberg&#xA;Born: 1984-5-14 at 14:39&#xA;Location: White Plains, US'" pointer-events="none"><text text-anchor="middle" transform="translate(0,11)" font-family="sans-serif" font-size="14px" font-weight="bold" fill="black" opacity="1">Mark Zuckerberg
Born: 1984-5-14 at 14:39
Location: White Plains, US</text></g><g class="mark-text role-title-subtitle" role="graphics-symbol" aria-roledescription="subtitle" aria-label="Subtitle text 'Natal Chart Special Aspects'" pointer-events="none"><text text-anchor="middle" transform="translate(0,26)" font-family="sans-serif" font-size="12px" fill="#000" opacity="1">Natal Chart Special Aspects</text></g></g><path class="foreground" aria-hidden="true" d="" pointer-events="none" display="none"/></g></g></g><path class="foreground" aria-hidden="true" d="" display="none"/></g></g></g><defs><clipPath id="clip1"><path d="M6,0L34,0C37.311490146964,0,40,2.688509853036,40,6L40,144C40,147.311490146964,37.311490146964,150,34,150L6,150C2.688509853036,150,0,147.311490146964,0,144L0,6C0,2.688509853036,2.688509853036,0,6,0Z"/></clipPath><clipPath id="clip2"><path d="M6,0L34,0C37.311490146964,0,40,2.688509853036,40,6L40,144C40,147.311490146964,37.311490146964,150,34,150L6,150C2.688509853036,150,0,147.311490146964,0,144L0,6C0,2.688509853036,2.688509853036,0,6,0Z"/></clipPath><clipPath id="clip3"><path d="M0,0h40v0h-40Z"/></clipPath><clipPath id="clip4"><path d="M6,0L34,0C37.311490146964,0,40,2.688509853036,40,6L40,144C40,147.311490146964,37.311490146964,150,34,150L6,150C2.688509853036,150,0,147.311490146964,0,144L0,6C0,2.688509853036,2.688509853036,0,6,0Z"/></clipPath></defs></svg>