<svg xmlns="http://www.w3.org/2000/svg" xmlns:xlink="http://www.w3.org/1999/xlink" version="1.1" class="marks" width="442" height="430" viewBox="0 0 442 430"><rect width="442" height="430" fill="white"/><g fill="none" stroke-miterlimit="10" transform="translate(37,45)"><g class="mark-group role-frame root" role="graphics-object" aria-roledescription="group mark container"><g transform="translate(0,0)"><path class="background" aria-hidden="true" d="M0.5,0.5h400v300h-400Z" stroke="#ddd"/><g><g class="mark-group role-axis" aria-hidden="true"><g transform="translate(0.5,300.5)"><path class="background" aria-hidden="true" d="M0,0h0v0h0Z" pointer-events="none"/><g><g class="mark-rule role-axis-grid" pointer-events="none"><line transform="translate(66,-300)" x2="0" y2="300" stroke="#ddd" stroke-width="1" opacity="1"/><line transform="translate(200,-300)" x2="0" y2="300" stroke="#ddd" stroke-width="1" opacity="1"/><line transform="translate(333,-300)" x2="0" y2="300" stroke="#ddd" stroke-width="1" opacity="1"/></g></g><path class="foreground" aria-hidden="true" d="" pointer-events="none" display="none"/></g></g><g class="mark-group role-axis" aria-hidden="true"><g transform="translate(0.5,0.5)"><path class="background" aria-hidden="true" d="M0,0h0v0h0Z" pointer-events="none"/><g><g class="mark-rule role-axis-grid" pointer-events="none"><line transform="translate(0,300)" x2="400" y2="0" stroke="#ddd" stroke-width="1" opacity="1"/><line transform="translate(0,225)" x2="400" y2="0" stroke="#ddd" stroke-width="1" opacity="1"/><line transform="translate(0,150)" x2="400" y2="0" stroke="#ddd" stroke-width="1" opacity="1"/><line transform="translate(0,75)" x2="400" y2="0" stroke="#ddd" stroke-width="1" opacity="1"/><line transform="translate(0,0)" x2="400" y2="0" stroke="#ddd" stroke-width="1" opacity="1"/></g></g><path class="foreground" aria-hidden="true" d="" pointer-events="none" display="none"/></g></g><g class="mark-group role-axis" role="graphics-symbol" aria-roledescription="axis" aria-label="X-axis titled 'Aspect Type' for a discrete scale with 3 values: Cinderella, Golden, Turbulent"><g transform="translate(0.5,300.5)"><path class="background" aria-hidden="true" d="M0,0h0v0h0Z" pointer-events="none"/><g><g class="mark-rule role-axis-tick" pointer-events="none"><line transform="translate(66,0)" x2="0" y2="5" stroke="#888" stroke-width="1" opacity="1"/><line transform="translate(200,0)" x2="0" y2="5" stroke="#888" stroke-width="1" opacity="1"/><line transform="translate(333,0)" x2="0" y2="5" stroke="#888" stroke-width="1" opacity="1"/></g><g class="mark-text role-axis-label" pointer-events="none"><text text-anchor="end" transform="translate(66.16666666666666,7) rotate(270) translate(0,4)" font-family="sans-serif" font-size="12px" fill="#000" opacity="1">Cinderella</text><text text-anchor="end" transform="translate(199.5,7) rotate(270) translate(0,4)" font-family="sans-serif" font-size="12px" fill="#000" opacity="1">Golden</text><text text-anchor="end" transform="translate(332.83333333333337,7) rotate(270) translate(0,4)" font-family="sans-serif" font-size="12px" fill="#000" opacity="1">Turbulent</text></g><g class="mark-rule role-axis-domain" pointer-events="none"><line transform="translate(0,0)" x2="400" y2="0" stroke="#888" stroke-width="1" opacity="1"/></g><g class="mark-text role-axis-title" pointer-events="none"><text text-anchor="middle" transform="translate(200,76.029296875)" font-family="sans-serif" font-size="14px" font-weight="bold" fill="#000" opacity="1">Aspect Type</text></g></g><path class="foreground" aria-hidden="true" d="" pointer-events="none" display="none"/></g></g><g class="mark-group role-axis" role="graphics-symbol" aria-roledescription="axis" aria-label="Y-axis titled 'Number of Aspects' for a linear scale with values from 0 to 4"><g transform="translate(0.5,0.5)"><path class="background" aria-hidden="true" d="M0,0h0v0h0Z" pointer-events="none"/><g><g class="mark-rule role-axis-tick" pointer-events="none"><line transform="translate(0,300)" x2="-5" y2="0" stroke="#888" stroke-width="1" opacity="1"/><line transform="translate(0,225)" x2="-5" y2="0" stroke="#888" stroke-width="1" opacity="1"/><line transform="translate(0,150)" x2="-5" y2="0" stroke="#888" stroke-width="1" opacity="1"/><line transform="translate(0,75)" x2="-5" y2="0" stroke="#888" stroke-width="1" opacity="1"/><line transform="translate(0,0)" x2="-5" y2="0" stroke="#888" stroke-width="1" opacity="1"/></g><g class="mark-text role-axis-label" pointer-events="none"><text text-anchor="end" transform="translate(-7,304)" font-family="sans-serif" font-size="12px" fill="#000" opacity="1">0</text><text text-anchor="end" transform="translate(-7,229)" font-family="sans-serif" font-size="12px" fill="#000" opacity="1">1</text><text text-anchor="end" transform="translate(-7,154)" font-family="sans-serif" font-size="12px" fill="#000" opacity="1">2</text><text text-anchor="end" transform="translate(-7,79)" font-family="sans-serif" font-size="12px" fill="#000" opacity="1">3</text><text text-anchor="end" transform="translate(-7,4)" font-family="sans-serif" font-size="12px" fill="#000" opacity="1">4</text></g><g class="mark-rule role-axis-domain" pointer-events="none"><line transform="translate(0,300)" x2="0" y2="-300" stroke="#888" stroke-width="1" opacity="1"/></g><g class="mark-text role-axis-title" pointer-events="none"><text text-anchor="middle" transform="translate(-17.673828125,150) rotate(-90) translate(0,-3)" font-family="sans-serif" font-size="14px" font-weight="bold" fill="#000" opacity="1">Number of Aspects</text></g></g><path class="foreground" aria-hidden="true" d="" pointer-events="none" display="none"/></g></g><g class="mark-group role-scope" role="graphics-object" aria-roledescription="group mark container"><g transform="translate(46.66666666666666,75)"><path class="background" aria-hidden="true" d="M6,0L34,0C37.311490146964,0,40,2.688509853036,40,6L40,219C40,222.311490146964,37.311490146964,225,34,225L6,225C2.688509853036,225,0,222.311490146964,0,219L0,6C0,2.688509853036,2.688509853036,0,6,0Z"/><g clip-path="url(#clip13)"><g class="mark-group role-scope" role="graphics-object" aria-roledescription="group mark container"><g transform="translate(0,-75)"><path class="background" aria-hidden="true" d="M0,0h40v0h-40Z"/><g><g class="mark-rect role-mark layer_0_marks" role="graphics-object" aria-roledescription="rect mark container"><path aria-label="Aspect Type: Cinderella; Number of Aspects: 3; type: Cinderella; Count: 3; Aspects: Neptune-Chiron (Parallel, orbit: 0.2945°)&#xA;Chiron-Venus (Conjunction, orbit: 2.8654°)&#xA;Chiron-Neptune (Parallel, orbit: 0.2945°)" role="graphics-symbol" aria-roledescription="bar" d="M0,75h40v225h-40Z" fill="#FF69B4"/></g></g><path class="foreground" aria-hidden="true" d="" display="none"/></g></g></g><path class="foreground" aria-hidden="true" d="" display="none"/></g><g transform="translate(180,225)"><path class="background" aria-hidden="true" d="M6,0L34,0C37.311490146964,0,40,2.688509853036,40,6L40,69C40,72.311490146964,37.311490146964,75,34,75L6,75C2.688509853036,75,0,72.311490146964,0,69L0,6C0,2.688509853036,2.688509853036,0,6,0Z"/><g clip-path="url(#clip14)"><g class="mark-group role-scope" role="graphics-object" aria-roledescription="group mark container"><g transform="translate(0,-225)"><path class="background" aria-hidden="true" d="M0,0h40v0h-40Z"/><g><g class="mark-rect role-mark layer_0_marks" role="graphics-object" aria-roledescription="rect mark container"><path aria-label="Aspect Type: Golden; Number of Aspects: 1; type: Golden; Count: 1; Aspects: Venus-Pluto (Trine, orbit: 0.4495°)" role="graphics-symbol" aria-roledescription="bar" d="M0,225h40v75h-40Z" fill="#FFD700"/></g></g><path class="foreground" aria-hidden="true" d="" display="none"/></g></g></g><path class="foreground" aria-hidden="true" d="" display="none"/></g><g transform="translate(313.33333333333337,300)"><path class="background" aria-hidden="true" d="M0,0h40v0h-40Z"/><g clip-path="url(#clip15)"><g class="mark-group role-scope" role="graphics-object" aria-roledescription="group mark container"><g transform="translate(0,-300)"><path class="background" aria-hidden="true" d="M0,0h40v0h-40Z"/><g><g class="mark-rect role-mark layer_0_marks" role="graphics-object" aria-roledescription="rect mark container"><path aria-label="Aspect Type: Turbulent; Number of Aspects: 0; type: Turbulent; Count: 0; Aspects: None" role="graphics-symbol" aria-roledescription="bar" d="M0,300h40v0h-40Z" fill="#FF4500"/></g></g><path class="foreground" aria-hidden="true" d="" display="none"/></g></g></g><path class="foreground" aria-hidden="true" d="" display="none"/></g></g><g class="mark-text role-mark layer_1_marks" role="graphics-object" aria-roledescription="text mark container"><text aria-label="Aspect Type: Cinderella; Number of Aspects: 3; type: Cinderella; count: 3; Count: 3; Aspects: Neptune-Chiron (Parallel, orbit: 0.2945°)&#xA;Chiron-Venus (Conjunction, orbit: 2.8654°)&#xA;Chiron-Neptune (Parallel, orbit: 0.2945°)" role="graphics-symbol" aria-roledescription="text mark" text-anchor="middle" transform="translate(66.66666666666666,68)" font-family="sans-serif" font-size="11px" fill="#FF69B4">3</text><text aria-label="Aspect Type: Golden; Number of Aspects: 1; type: Golden; count: 1; Count: 1; Aspects: Venus-Pluto (Trine, orbit: 0.4495°)" role="graphics-symbol" aria-roledescription="text mark" text-anchor="middle" transform="translate(200,218)" font-family="sans-serif" font-size="11px" fill="#FFD700">1</text><text aria-label="Aspect Type: Turbulent; Number of Aspects: 0; type: Turbulent; count: 0; Count: 0; Aspects: None" role="graphics-symbol" aria-roledescription="text mark" text-anchor="middle" transform="translate(333.33333333333337,293)" font-family="sans-serif" font-size="11px" fill="#FF4500">0</text></g><g class="mark-group role-title"><g transform="translate(200,-40)"><path class="background" aria-hidden="true" d="M0,0h0v0h0Z" pointer-events="none"/><g><g class="mark-text role-title-text" role="graphics-symbol" aria-roledescription="title" aria-label="Title text 'Nicole Kidman Transit Aspects for February 05, 2001'" pointer-events="none"><text text-anchor="middle" transform="translate(0,11)" font-family="sans-serif" font-size="14px" font-weight="bold" fill="black" opacity="1"><tspan>Nicole Kidman</tspan><tspan x="0" dy="16">Transit Aspects for February 05, 2001</tspan></text></g></g><path class="foreground" aria-hidden="true" d="" pointer-events="none" display="none"/></g></g></g><path class="foreground" aria-hidden="true" d="" display="none"/></g></g></g><defs><clipPath id="clip13"><path d="M6,0L34,0C37.311490146964,0,40,2.688509853036,40,6L40,219C40,222.311490146964,37.311490146964,225,34,225L6,225C2.688509853036,225,0,222.311490146964,0,219L0,6C0,2.688509853036,2.688509853036,0,6,0Z"/></clipPath><clipPath id="clip14"><path d="M6,0L34,0C37.311490146964,0,40,2.688509853036,40,6L40,69C40,72.311490146964,37.311490146964,75,34,75L6,75C2.688509853036,75,0,72.311490146964,0,69L0,6C0,2.688509853036,2.688509853036,0,6,0Z"/></clipPath><clipPath id="clip15"><path d="M0,0h40v0h-40Z"/></clipPath></defs></svg>